<?xml version="1.0" encoding="UTF-8" standalone="no"?>
<!-- Created with Inkscape (http://www.inkscape.org/) -->

<svg
   xmlns:dc="http://purl.org/dc/elements/1.1/"
   xmlns:cc="http://creativecommons.org/ns#"
   xmlns:rdf="http://www.w3.org/1999/02/22-rdf-syntax-ns#"
   xmlns:svg="http://www.w3.org/2000/svg"
   xmlns="http://www.w3.org/2000/svg"
   xmlns:xlink="http://www.w3.org/1999/xlink"
   xmlns:sodipodi="http://sodipodi.sourceforge.net/DTD/sodipodi-0.dtd"
   xmlns:inkscape="http://www.inkscape.org/namespaces/inkscape"
   width="1024px"
   height="768px"
   id="svg2985"
   version="1.1"
   inkscape:version="0.48.4 r9939"
   sodipodi:docname="unhosted_app_stack_sockethub.svg"
   inkscape:export-filename="/home/nkj/code/website-silverbucket.net/img/full_stack.png"
   inkscape:export-xdpi="90"
   inkscape:export-ydpi="90">
  <defs
     id="defs2987">
    <linearGradient
       id="linearGradient4084">
      <stop
         style="stop-color:#ff9c1f;stop-opacity:1;"
         offset="0"
         id="stop4086" />
      <stop
         id="stop4094"
         offset="0.23809524"
         style="stop-color:#f23c00;stop-opacity:1;" />
      <stop
         style="stop-color:#de0f3c;stop-opacity:0.82467532;"
         offset="1"
         id="stop4088" />
    </linearGradient>
    <radialGradient
       inkscape:collect="always"
       xlink:href="#linearGradient3833-1-4"
       id="radialGradient3209"
       gradientUnits="userSpaceOnUse"
       gradientTransform="matrix(0.57730793,0,0,0.66666687,779.25075,543.40387)"
       cx="1046.5312"
       cy="571.42188"
       fx="1046.5312"
       fy="571.42188"
       r="95.999977" />
    <linearGradient
       id="linearGradient3833-1-4">
      <stop
         style="stop-color:#ff4a04;stop-opacity:0.76153845;"
         offset="0"
         id="stop3835-7-8" />
      <stop
         style="stop-color:#ff4a04;stop-opacity:1;"
         offset="1"
         id="stop3837-7-0" />
    </linearGradient>
    <radialGradient
       r="95.999977"
       fy="571.42188"
       fx="1046.5312"
       cy="571.42188"
       cx="1046.5312"
       gradientTransform="matrix(0.57730793,0,0,0.66666687,779.25075,543.40387)"
       gradientUnits="userSpaceOnUse"
       id="radialGradient4858"
       xlink:href="#linearGradient3833-1-4"
       inkscape:collect="always" />
  </defs>
  <sodipodi:namedview
     id="base"
     pagecolor="#ffffff"
     bordercolor="#666666"
     borderopacity="1.0"
     inkscape:pageopacity="0.0"
     inkscape:pageshadow="2"
     inkscape:zoom="1"
     inkscape:cx="753.20401"
     inkscape:cy="267.5026"
     inkscape:current-layer="layer1"
     inkscape:document-units="px"
     showgrid="false"
     inkscape:window-width="1321"
     inkscape:window-height="666"
     inkscape:window-x="1"
     inkscape:window-y="59"
     inkscape:window-maximized="0" />
  <metadata
     id="metadata2990">
    <rdf:RDF>
      <cc:Work
         rdf:about="">
        <dc:format>image/svg+xml</dc:format>
        <dc:type
           rdf:resource="http://purl.org/dc/dcmitype/StillImage" />
        <dc:title></dc:title>
      </cc:Work>
    </rdf:RDF>
  </metadata>
  <g
     id="layer1"
     inkscape:label="Layer 1"
     inkscape:groupmode="layer">
    <rect
       style="fill:#ffffff;fill-opacity:1;stroke:#000000;stroke-width:2.47881985;stroke-miterlimit:4;stroke-opacity:1;stroke-dasharray:none"
       id="rect2993"
       width="530.5575"
       height="212.5475"
       x="221.60313"
       y="165.83929"
       rx="26.753061"
       ry="9.0442095" />
    <rect
       style="fill:#ccffaa;fill-opacity:1;stroke:none"
       id="rect3072-73"
       width="525.1181"
       height="104"
       x="223.99997"
       y="273.5025"
       rx="26.675247"
       ry="26.449726" />
    <text
       xml:space="preserve"
       style="font-size:40px;font-style:normal;font-weight:normal;line-height:125%;letter-spacing:0px;word-spacing:0px;fill:#000000;fill-opacity:1;stroke:none;font-family:Sans"
       x="389.99997"
       y="336.5025"
       id="text3011"
       sodipodi:linespacing="125%"><tspan
         sodipodi:role="line"
         id="tspan3013"
         x="389.99997"
         y="336.5025">App Logic</tspan><tspan
         sodipodi:role="line"
         x="389.99997"
         y="386.5025"
         id="tspan3015" /></text>
    <rect
       style="fill:#ffd5d5;fill-opacity:1;stroke:none"
       id="rect3072"
       width="527"
       height="106"
       x="223"
       y="168"
       rx="26.770845"
       ry="26.958374" />
    <text
       xml:space="preserve"
       style="font-size:40px;font-style:normal;font-weight:normal;line-height:125%;letter-spacing:0px;word-spacing:0px;fill:#000000;fill-opacity:1;stroke:none;font-family:Sans"
       x="358"
       y="238"
       id="text3017"
       sodipodi:linespacing="125%"><tspan
         sodipodi:role="line"
         x="358"
         y="238"
         id="tspan3021">User Interface</tspan></text>
    <rect
       style="opacity:0.52192982;fill:#aaaaaa;fill-opacity:1;stroke:#000000;stroke-width:2.48000001999999986;stroke-miterlimit:4;stroke-opacity:1;stroke-dasharray:none"
       id="rect3244"
       width="1026"
       height="774"
       x="0"
       y="-2"
       rx="26.770845"
       ry="26.958374" />
    <path
       sodipodi:type="arc"
       style="fill:#ffffff;fill-opacity:1;stroke:#000000;stroke-width:2.48000002;stroke-miterlimit:4;stroke-opacity:1;stroke-dasharray:none"
       id="path4014"
       sodipodi:cx="248"
       sodipodi:cy="568"
       sodipodi:rx="190"
       sodipodi:ry="134"
       d="m 438,568 a 190,134 0 1 1 -380,0 190,134 0 1 1 380,0 z"
       transform="translate(494,2)" />
    <rect
       style="fill:#ffe6d5;fill-opacity:1;stroke:#000000;stroke-width:0.89711517;stroke-opacity:1"
       id="rect3072-2"
       width="254.32149"
       height="90.102882"
       x="608.45355"
       y="518.88574"
       rx="12.919167"
       ry="22.915352" />
    <text
       xml:space="preserve"
       style="font-size:40px;font-style:normal;font-weight:normal;line-height:125%;letter-spacing:0px;word-spacing:0px;fill:#000000;fill-opacity:1;stroke:none;font-family:Sans"
       x="686.81909"
       y="579.93719"
       id="text3003"
       sodipodi:linespacing="125%"><tspan
         sodipodi:role="line"
         x="686.81909"
         y="579.93719"
         id="tspan3007">Data</tspan></text>
    <text
       xml:space="preserve"
       style="font-size:30.36932182px;font-style:normal;font-weight:normal;line-height:125%;letter-spacing:0px;word-spacing:0px;fill:#000000;fill-opacity:1;stroke:none;font-family:Sans"
       x="180.92326"
       y="353.63434"
       id="text3029"
       sodipodi:linespacing="125%"
       transform="scale(1.2720659,0.78612279)"><tspan
         sodipodi:role="line"
         id="tspan3031"
         x="180.92326"
         y="353.63434">..........................................</tspan></text>
    <rect
       style="fill:#d7f4ee;fill-opacity:1;stroke:#000000;stroke-opacity:1"
       id="rect3072-7"
       width="323.38443"
       height="96"
       x="88.376892"
       y="515.92963"
       rx="16.427465"
       ry="24.415133" />
    <text
       xml:space="preserve"
       style="font-size:40px;font-style:normal;font-weight:normal;line-height:125%;letter-spacing:0px;word-spacing:0px;fill:#000000;fill-opacity:1;stroke:none;font-family:Sans"
       x="170.88191"
       y="110.17337"
       id="text2995"
       sodipodi:linespacing="125%"><tspan
         sodipodi:role="line"
         id="tspan2997"
         x="170.88191"
         y="110.17337"
         style="font-weight:bold;-inkscape-font-specification:Sans Bold">Unhosted web application stack</tspan></text>
    <text
       xml:space="preserve"
       style="font-size:40px;font-style:normal;font-weight:normal;line-height:125%;letter-spacing:0px;word-spacing:0px;fill:#000000;fill-opacity:1;stroke:none;font-family:Sans"
       x="158.62814"
       y="582.92963"
       id="text2999"
       sodipodi:linespacing="125%"><tspan
         sodipodi:role="line"
         id="tspan3001"
         x="158.62814"
         y="582.92963">Protocols</tspan></text>
    <path
       style="opacity:0;fill:#ffffff;fill-opacity:1;stroke:#000000;stroke-width:2.48000002;stroke-miterlimit:4;stroke-opacity:1;stroke-dasharray:none"
       id="path4055"
       d="m 231.38172,478.89371 c 0.96317,-3.05894 3.15016,-5.52083 4.5871,-8.36963 0.72301,-2.14849 2.18152,-3.75932 3.5266,-5.52721 2.11361,-3.4331 4.28623,-6.81233 6.59213,-10.11927 2.99559,-4.82896 7.10644,-8.79354 10.97339,-12.90764 4.01422,-3.5938 7.78834,-7.40888 11.46155,-11.34547 2.08791,-2.47139 4.57369,-4.51765 7.12842,-6.48554 1.0386,-0.71492 2.0701,-1.44025 3.11579,-2.14475 1.23247,-0.83032 2.54128,-1.55243 3.71838,-2.45954 5.25245,-4.04767 9.59306,-9.13139 14.08243,-13.96263 3.88938,-3.90699 7.19383,-8.32131 10.95564,-12.33758 5.09202,-4.59751 12.26216,-7.64251 17.79728,-10.85859 3.11525,-1.81006 -6.2005,3.67886 -9.39839,5.33858 -1.17356,0.60908 2.23419,-1.41679 3.31352,-2.18051 1.24625,-0.88182 2.43987,-1.83579 3.6598,-2.75368 5.68662,-4.77263 11.58379,-9.31869 17.93599,-13.17228 6.11038,-4.20817 12.38384,-8.17963 18.48422,-12.39754 7.26371,-5.43596 14.69373,-10.62545 22.9966,-14.44676 1.2009,-0.61889 1.91465,0.80568 2.26587,1.77174 0,0 -13.09839,7.11428 -13.09839,7.11428 l 0,0 c -0.0358,-0.61798 -0.0862,0.27455 -0.664,0.3076 -4.37776,2.37892 -4.26869,2.32951 10.5461,-6.1786 0.52103,-0.29923 -1.01559,0.64238 -1.51876,0.97073 -2.63502,1.71954 -5.23213,3.49995 -7.7318,5.41257 -7.02877,5.10057 0.38292,-0.12952 -6.82041,4.51232 -3.84478,2.47758 -7.44031,5.33635 -11.25684,7.85697 -6.59765,3.72536 -12.71152,8.2714 -18.46972,13.18618 -2.07566,1.66471 -4.24983,3.5352 -6.54463,4.92443 -4.88679,2.95839 -9.86326,5.76608 -14.78474,8.66639 -3.32309,1.95835 6.66364,-3.88694 9.98955,-5.8405 1.14865,-0.67469 -4.23818,2.33604 -3.34969,2.17962 -1.68178,1.81998 -0.77863,0.91153 -2.72372,2.71108 -3.09883,3.25322 -5.71998,6.97112 -9.08052,9.99089 -1.11352,1.16619 -2.25447,2.3068 -3.34057,3.49858 -1.14212,1.25326 -2.16651,2.61297 -3.34236,3.83464 -1.15949,1.20466 -2.44864,2.27762 -3.65498,3.43535 -1.17871,1.13123 -2.23855,2.39274 -3.4998,3.43115 -1.99657,1.64384 -4.44605,2.67646 -6.41265,4.36742 -0.71389,0.49749 -1.47109,0.93799 -2.14167,1.49247 -0.78747,0.65113 -1.33139,1.56873 -2.13559,2.19907 -0.27518,0.21569 -0.64703,0.29089 -0.91058,0.52065 -0.66293,0.57792 -0.93037,1.54027 -1.78052,1.94706 -3.893,3.90694 -7.61483,7.98327 -11.88743,11.49604 -3.71624,4.02303 -7.80718,7.80715 -10.64295,12.54003 -2.26733,3.32704 -4.70188,6.52908 -6.60189,10.09566 -0.29741,0.52383 -0.57022,1.06242 -0.89224,1.57149 -0.81434,1.28733 -2.19365,2.17508 -2.59184,3.74103 -1.32166,2.68046 -2.92709,5.17742 -4.61712,7.62934 0,0 -13.23656,6.74436 -13.23656,6.74436 z"
       inkscape:connector-curvature="0" />
    <path
       style="fill:none;stroke:#000000;stroke-width:1px;stroke-linecap:butt;stroke-linejoin:miter;stroke-opacity:1"
       d="M 434.98152,377.5025 297.67911,515.92963"
       id="path4057"
       inkscape:connector-type="polyline"
       inkscape:connector-curvature="0"
       inkscape:connection-start="#rect3072-73"
       inkscape:connection-start-point="d4"
       inkscape:connection-end="#rect3072-7"
       inkscape:connection-end-point="d4" />
    <path
       style="fill:none;stroke:#000000;stroke-width:1px;stroke-linecap:butt;stroke-linejoin:miter;stroke-opacity:1"
       d="M 688.55613,518.88574 540.87526,377.5025"
       id="path4061"
       inkscape:connector-type="polyline"
       inkscape:connector-curvature="0"
       inkscape:connection-start="#rect3072-2"
       inkscape:connection-start-point="d4"
       inkscape:connection-end="#rect3072-73"
       inkscape:connection-end-point="d4" />
    <g
       id="g3241"
       transform="matrix(0.83248845,0,0,0.765625,-465.24235,-221.70692)">
      <g
         id="text4664"
         style="font-size:21.41699219px;font-style:normal;font-weight:normal;line-height:75%;letter-spacing:0px;word-spacing:0px;fill:#000000;fill-opacity:1;stroke:none;font-family:Sans">
        <path
           id="path3215"
           style="font-size:42.83398438px;font-variant:normal;font-weight:900;font-stretch:normal;line-height:75%;letter-spacing:-0.40156862px;font-family:Ostrich Sans;-inkscape-font-specification:Ostrich Sans Heavy"
           d="m 1454.8401,908.36899 c 0.771,0.74247 1.3564,1.6277 1.7562,2.65571 0.4283,1.02802 0.6425,2.19882 0.6425,3.51238 l 0,9.33781 -4.0692,0 0,-9.33781 c 0,-2.76992 -1.3421,-4.15488 -4.0264,-4.15489 l -2.0132,0 -0.514,0 0,13.4927 -4.0264,0 0,-31.56865 6.5536,0 c 2.7128,4e-5 4.7546,0.7996 6.1253,2.39871 1.2564,1.45638 1.8846,3.65519 1.8847,6.59643 -10e-5,2.91273 -0.6283,5.12582 -1.8847,6.63927 -0.057,0.0571 -0.1286,0.12852 -0.2142,0.21417 -0.057,0.0857 -0.1285,0.15707 -0.2142,0.21417 m -5.6969,-2.05603 c 1.0851,10e-6 1.8276,-0.12849 2.2274,-0.38551 0.4283,-0.25698 0.6996,-0.45688 0.8138,-0.59967 0.6282,-0.79955 0.9423,-2.14168 0.9424,-4.0264 -10e-5,-1.05655 -0.086,-1.89895 -0.257,-2.5272 -0.1714,-0.65677 -0.4284,-1.1565 -0.7711,-1.49919 -0.3141,-0.3712 -0.7281,-0.61393 -1.2421,-0.72818 -0.4855,-0.1142 -1.0566,-0.17131 -1.7134,-0.17134 l -2.5272,0 0,9.93749 0.514,0 2.0132,0"
           inkscape:connector-curvature="0" />
        <path
           id="path3217"
           style="font-size:42.83398438px;font-variant:normal;font-weight:900;font-stretch:normal;line-height:75%;letter-spacing:-0.40156862px;font-family:Ostrich Sans;-inkscape-font-specification:Ostrich Sans Heavy"
           d="m 1473.0009,896.37547 -9.038,0 0,9.72332 9.038,0 0,4.02639 -9.038,0 0,9.76615 9.038,0 0,4.02639 -13.0643,0 0,-31.56864 13.0643,0 0,4.02639 0,0"
           inkscape:connector-curvature="0" />
        <path
           id="path3219"
           style="font-size:42.83398438px;font-variant:normal;font-weight:900;font-stretch:normal;line-height:75%;letter-spacing:-0.40156862px;font-family:Ostrich Sans;-inkscape-font-specification:Ostrich Sans Heavy"
           d="m 1479.4568,908.75449 0,15.1204 -4.0264,0 0,-31.56865 3.5552,0 6.3823,22.23084 6.3394,-22.23084 3.5552,0 0,31.56865 -4.0264,0 0,-15.1204 -4.369,15.1204 -3.0412,0 -4.3691,-15.1204 0,0"
           inkscape:connector-curvature="0" />
        <path
           id="path3221"
           style="font-size:42.83398438px;font-variant:normal;font-weight:900;font-stretch:normal;line-height:75%;letter-spacing:-0.40156862px;font-family:Ostrich Sans;-inkscape-font-specification:Ostrich Sans Heavy"
           d="m 1505.0271,923.87489 c -1.5134,0 -2.7271,-0.27128 -3.6408,-0.81385 -0.9138,-0.54256 -1.5992,-1.0994 -2.0561,-1.67052 -1.1993,-1.54202 -1.799,-3.71227 -1.799,-6.51077 l 0,-13.57837 c 0,-2.79846 0.5997,-4.96871 1.799,-6.51076 0.2285,-0.28554 0.4998,-0.57109 0.8139,-0.85668 0.3426,-0.28553 0.7424,-0.54254 1.1993,-0.77102 0.4855,-0.25697 1.028,-0.45686 1.6277,-0.59967 0.5997,-0.17131 1.285,-0.25697 2.056,-0.25701 1.5421,4e-5 2.7557,0.27132 3.6409,0.81385 0.9138,0.54259 1.5992,1.09944 2.0561,1.67053 1.1993,1.54205 1.799,3.7123 1.799,6.51076 l 0,13.57837 c 0,2.7985 -0.5997,4.96875 -1.799,6.51077 -0.4569,0.57112 -1.1423,1.12796 -2.0561,1.67052 -0.8852,0.54257 -2.0988,0.81385 -3.6409,0.81385 m 0,-27.49942 c -0.3141,3e-5 -0.671,0.0286 -1.0708,0.0857 -0.3712,0.0571 -0.7425,0.24275 -1.1137,0.55684 -0.3712,0.28559 -0.6853,0.77104 -0.9423,1.45636 -0.2285,0.65681 -0.3427,1.59916 -0.3427,2.82704 l 0,13.57837 c 0,1.25648 0.1142,2.22738 0.3427,2.91271 0.257,0.6568 0.5711,1.14225 0.9423,1.45636 0.3712,0.28556 0.7425,0.4569 1.1137,0.51401 0.3998,0.0571 0.7567,0.0857 1.0708,0.0857 0.2856,0 0.6283,-0.0286 1.0281,-0.0857 0.3997,-0.0571 0.7852,-0.22845 1.1565,-0.51401 0.3712,-0.31411 0.671,-0.79956 0.8995,-1.45636 0.257,-0.68533 0.3855,-1.65623 0.3855,-2.91271 l 0,-13.57837 c 0,-1.22788 -0.1285,-2.17023 -0.3855,-2.82704 -0.2285,-0.68532 -0.5283,-1.17077 -0.8995,-1.45636 -0.3713,-0.31409 -0.7568,-0.4997 -1.1565,-0.55684 -0.3998,-0.0571 -0.7425,-0.0856 -1.0281,-0.0857"
           inkscape:connector-curvature="0" />
        <path
           id="path3223"
           style="font-size:42.83398438px;font-variant:normal;font-weight:900;font-stretch:normal;line-height:75%;letter-spacing:-0.40156862px;font-family:Ostrich Sans;-inkscape-font-specification:Ostrich Sans Heavy"
           d="m 1531.3506,892.30624 0,4.06923 -6.8963,0 0,27.49942 -4.0692,0 0,-27.49942 -6.8963,0 0,-4.06923 17.8618,0 0,0"
           inkscape:connector-curvature="0" />
        <path
           id="path3225"
           style="font-size:42.83398438px;font-variant:normal;font-weight:900;font-stretch:normal;line-height:75%;letter-spacing:-0.40156862px;font-family:Ostrich Sans;-inkscape-font-specification:Ostrich Sans Heavy"
           d="m 1545.8954,896.37547 -9.0379,0 0,9.72332 9.0379,0 0,4.02639 -9.0379,0 0,9.76615 9.0379,0 0,4.02639 -13.0643,0 0,-31.56864 13.0643,0 0,4.02639 0,0"
           inkscape:connector-curvature="0" />
        <path
           id="path3227"
           style="font-size:43.17924118px;font-variant:normal;font-weight:500;font-stretch:normal;line-height:75%;font-family:Ostrich Sans;-inkscape-font-specification:Ostrich Sans Medium"
           d="m 1449.2392,956.19424 c -2.0726,0 -3.6271,-0.66208 -4.6634,-1.98624 -1.0363,-1.23781 -1.5544,-3.13769 -1.5544,-5.69966 l 0,-0.64769 1.3385,0 0,0.64769 c 0,1.43931 0.1584,2.57636 0.475,3.41116 0.3167,0.8348 0.7053,1.46809 1.1659,1.89988 0.4893,0.4318 1.0219,0.71966 1.5976,0.86359 0.5757,0.11514 1.1226,0.17272 1.6408,0.17271 1.5544,10e-6 2.7491,-0.53254 3.5839,-1.59763 0.8636,-1.09387 1.2953,-2.60514 1.2954,-4.53382 -10e-5,-1.03629 -0.1872,-1.89988 -0.5614,-2.59075 -0.3454,-0.71965 -0.7772,-1.30976 -1.2954,-1.77035 -0.4893,-0.46057 -1.0075,-0.82039 -1.5544,-1.07948 -0.5469,-0.25906 -0.9931,-0.46057 -1.3386,-0.60451 l -0.734,-0.30226 c -0.4318,-0.1727 -0.9643,-0.41738 -1.5976,-0.73404 -0.6333,-0.34542 -1.2522,-0.806 -1.8567,-1.38174 -0.5758,-0.60449 -1.0795,-1.33854 -1.5113,-2.20214 -0.4318,-0.89235 -0.6477,-1.97183 -0.6477,-3.23844 0,-2.18773 0.5037,-3.98686 1.5113,-5.39741 1.1514,-1.55442 2.7203,-2.33165 4.7065,-2.33168 2.0438,3e-5 3.6127,0.67651 4.7065,2.02943 1.0363,1.2954 1.5545,3.19528 1.5545,5.69966 l 0,0.69086 -1.3817,0 0,-0.69086 c -10e-5,-2.18773 -0.4175,-3.81414 -1.2522,-4.87926 -0.7773,-0.9787 -1.9863,-1.46806 -3.6271,-1.46809 -1.5545,3e-5 -2.7491,0.59014 -3.5839,1.77035 -0.8636,1.18025 -1.2954,2.70592 -1.2954,4.577 0,1.03632 0.1728,1.9143 0.5182,2.63393 0.3454,0.71967 0.7628,1.32418 1.2522,1.81353 0.5181,0.48938 1.0507,0.87799 1.5976,1.16584 0.547,0.28787 1.0363,0.51816 1.4681,0.69087 l 0.6909,0.30225 c 0.3742,0.14395 0.878,0.37423 1.5113,0.69087 0.6333,0.28787 1.2522,0.71967 1.8567,1.29538 0.6045,0.54694 1.1226,1.2522 1.5544,2.11578 0.4606,0.86359 0.6909,1.92868 0.6909,3.19526 0,2.15897 -0.5182,3.91492 -1.5545,5.26787 -1.1226,1.46809 -2.6915,2.20214 -4.7065,2.20214"
           inkscape:connector-curvature="0" />
        <path
           id="path3229"
           style="font-size:43.17924118px;font-variant:normal;font-weight:500;font-stretch:normal;line-height:75%;font-family:Ostrich Sans;-inkscape-font-specification:Ostrich Sans Medium"
           d="m 1472.2289,927.09143 0,1.38174 -6.995,0 0,27.72107 -1.3386,0 0,-27.72107 -6.9518,0 0,-1.38174 15.2854,0 0,0"
           inkscape:connector-curvature="0" />
        <path
           id="path3231"
           style="font-size:43.17924118px;font-variant:normal;font-weight:500;font-stretch:normal;line-height:75%;font-family:Ostrich Sans;-inkscape-font-specification:Ostrich Sans Medium"
           d="m 1479.4495,956.23742 c -0.6909,0 -1.4106,-0.10075 -2.159,-0.30225 -0.7196,-0.20151 -1.3817,-0.59012 -1.9862,-1.16584 -0.6045,-0.57573 -1.0939,-1.35295 -1.4681,-2.33168 -0.3742,-1.00751 -0.5614,-2.31728 -0.5614,-3.92931 l 0,-13.68782 c 0,-2.47559 0.5038,-4.37547 1.5113,-5.69966 1.0651,-1.32414 2.6196,-1.98622 4.6634,-1.98625 2.0726,3e-5 3.627,0.66211 4.6633,1.98625 1.0363,1.2954 1.5545,3.19528 1.5545,5.69966 l 0,13.68782 c 0,1.61203 -0.1871,2.9218 -0.5613,3.92931 -0.3743,0.97873 -0.8636,1.75595 -1.4681,2.33168 -0.6046,0.57572 -1.281,0.96433 -2.0295,1.16584 -0.7196,0.2015 -1.4393,0.30225 -2.1589,0.30225 m 0,-27.76425 c -1.6408,3e-5 -2.8355,0.50378 -3.5839,1.51127 -0.8348,1.06511 -1.2522,2.67714 -1.2522,4.83608 l 0,13.68782 c 0,2.18775 0.4174,3.81417 1.2522,4.87925 0.7772,1.00752 1.9718,1.51127 3.5839,1.51127 1.5832,0 2.7922,-0.50375 3.627,-1.51127 0.806,-1.00751 1.209,-2.63393 1.209,-4.87925 l 0,-13.68782 c 0,-2.21651 -0.403,-3.82854 -1.209,-4.83608 -0.806,-1.00749 -2.015,-1.51124 -3.627,-1.51127"
           inkscape:connector-curvature="0" />
        <path
           id="path3233"
           style="font-size:43.17924118px;font-variant:normal;font-weight:500;font-stretch:normal;line-height:75%;font-family:Ostrich Sans;-inkscape-font-specification:Ostrich Sans Medium"
           d="m 1498.7708,942.98139 c 1.2954,1.23782 1.9431,2.95059 1.9431,5.13833 l 0,8.07452 -1.3817,0 0,-8.07452 c 0,-1.75594 -0.475,-3.10889 -1.4249,-4.05885 -0.95,-0.97871 -2.2886,-1.46808 -4.0157,-1.46809 l -0.6477,0 -3.2385,0 0,13.60146 -1.3385,0 0,-29.10281 5.2247,0 c 2.3317,3e-5 4.03,0.63333 5.0951,1.89989 1.0939,1.23783 1.6408,3.18089 1.6408,5.8292 0,2.59077 -0.5325,4.51944 -1.5976,5.78601 -0.4606,0.54696 -1.0363,0.99314 -1.7272,1.33856 0.547,0.25909 1.0363,0.60452 1.4681,1.0363 m -4.8792,-1.77035 c 1.9286,2e-5 3.296,-0.48935 4.102,-1.46809 0.8636,-1.03628 1.2954,-2.67709 1.2954,-4.92243 0,-2.27409 -0.4174,-3.9005 -1.2522,-4.87926 -0.8348,-0.9787 -2.2166,-1.46806 -4.1452,-1.46809 l -3.8862,0 0,12.73787 3.2385,0 0.6477,0"
           inkscape:connector-curvature="0" />
        <path
           id="path3235"
           style="font-size:43.17924118px;font-variant:normal;font-weight:500;font-stretch:normal;line-height:75%;font-family:Ostrich Sans;-inkscape-font-specification:Ostrich Sans Medium"
           d="m 1505.017,956.23742 -1.3818,0 2.2885,-10.10394 0,-0.12954 0,0 4.4043,-18.86933 1.0795,0 6.6496,29.10281 -1.3817,0 -1.9863,-8.89492 -7.6859,0 -1.9862,8.89492 m 5.8292,-25.43257 -3.4975,15.19909 7.0382,0 -3.5407,-15.19909"
           inkscape:connector-curvature="0" />
        <path
           id="path3237"
           style="font-size:43.17924118px;font-variant:normal;font-weight:500;font-stretch:normal;line-height:75%;font-family:Ostrich Sans;-inkscape-font-specification:Ostrich Sans Medium"
           d="m 1526.38,956.23742 c -2.0726,0 -3.6415,-0.66208 -4.7066,-1.98625 -1.0075,-1.32416 -1.5112,-3.22404 -1.5112,-5.69966 l 0,-13.77417 c 0,-2.50438 0.5037,-4.38987 1.5112,-5.65648 1.0651,-1.32414 2.634,-1.98622 4.7066,-1.98625 2.0726,3e-5 3.627,0.66211 4.6633,1.98625 1.0363,1.26661 1.5545,3.1521 1.5545,5.65648 l 0,0.69086 -1.3817,0 0,-0.69086 c -1e-4,-1.4105 -0.1584,-2.53316 -0.475,-3.36798 -0.3167,-0.83478 -0.7197,-1.46807 -1.209,-1.89989 -0.4606,-0.43177 -0.9788,-0.70523 -1.5545,-0.82041 -0.5469,-0.1439 -1.0795,-0.21586 -1.5976,-0.21589 -0.5182,3e-5 -1.0651,0.072 -1.6408,0.21589 -0.5758,0.11518 -1.1083,0.38864 -1.5977,0.82041 -0.4605,0.43182 -0.8492,1.06511 -1.1658,1.89989 -0.3167,0.83482 -0.475,1.95748 -0.475,3.36798 l 0,13.77417 c 0,2.15897 0.4174,3.771 1.2522,4.83608 0.7772,1.00752 1.9863,1.51127 3.6271,1.51127 1.612,0 2.8066,-0.50375 3.5839,-1.51127 0.8347,-1.06508 1.2521,-2.67711 1.2522,-4.83608 l 0,-3.79977 -6.3042,0 0,-1.38173 7.6859,0 0,5.1815 c 0,2.50441 -0.5182,4.40429 -1.5545,5.69966 -1.0363,1.32417 -2.5907,1.98625 -4.6633,1.98625"
           inkscape:connector-curvature="0" />
        <path
           id="path3239"
           style="font-size:43.17924118px;font-variant:normal;font-weight:500;font-stretch:normal;line-height:75%;font-family:Ostrich Sans;-inkscape-font-specification:Ostrich Sans Medium"
           d="m 1536.6809,928.47317 0,12.52198 9.1108,0 0,1.33855 -9.1108,0 0,12.56516 9.1108,0 0,1.33856 -10.4493,0 0,-29.10281 10.4493,0 0,1.33856 -9.1108,0"
           inkscape:connector-curvature="0" />
      </g>
      <path
         inkscape:connector-curvature="0"
         id="path4016-3-8-6"
         d="m 1383.4215,860.3519 1.1546,60.54517 54.267,-28.54066 -55.4216,-32.00451 z m 0,0 -55.4215,32.00451 54.2669,28.54066 1.1546,-60.54517 z M 1328,892.35641 l 0,63.99097 51.8315,-31.26483 L 1328,892.35641 z m 0,63.99097 55.4215,32.00451 -2.4354,-61.26681 -52.9861,29.2623 z m 55.4215,32.00451 55.4216,-32.00451 -53.004,-29.2623 -2.4176,61.26681 z m 55.4216,-32.00451 0,-63.99097 -51.8494,32.72614 51.8494,31.26483 z"
         style="color:#000000;fill:url(#radialGradient4858);fill-opacity:1;fill-rule:nonzero;stroke:none;marker:none;visibility:visible;display:inline;overflow:visible;enable-background:accumulate" />
    </g>
    <text
       xml:space="preserve"
       style="font-size:40px;font-style:normal;font-weight:normal;line-height:125%;letter-spacing:0px;word-spacing:0px;fill:#000000;fill-opacity:1;stroke:none;font-family:Sans"
       x="605"
       y="638"
       id="text4907"
       sodipodi:linespacing="125%"><tspan
         sodipodi:role="line"
         id="tspan4909"
         x="605"
         y="638"
         style="font-size:24px">http://remotestorage.io</tspan></text>
  </g>
</svg>
