<?xml version="1.0" encoding="UTF-8" standalone="no"?>
<!-- Created with Inkscape (http://www.inkscape.org/) -->

<svg
   xmlns:dc="http://purl.org/dc/elements/1.1/"
   xmlns:cc="http://creativecommons.org/ns#"
   xmlns:rdf="http://www.w3.org/1999/02/22-rdf-syntax-ns#"
   xmlns:svg="http://www.w3.org/2000/svg"
   xmlns="http://www.w3.org/2000/svg"
   xmlns:sodipodi="http://sodipodi.sourceforge.net/DTD/sodipodi-0.dtd"
   xmlns:inkscape="http://www.inkscape.org/namespaces/inkscape"
   width="1024px"
   height="768px"
   id="svg2985"
   version="1.1"
   inkscape:version="0.48.4 r9939"
   sodipodi:docname="unhosted_app_stack.svg"
   inkscape:export-filename="/home/nkj/code/website-silverbucket.net/img/full_stack.png"
   inkscape:export-xdpi="90"
   inkscape:export-ydpi="90">
  <defs
     id="defs2987" />
  <sodipodi:namedview
     id="base"
     pagecolor="#ffffff"
     bordercolor="#666666"
     borderopacity="1.0"
     inkscape:pageopacity="0.0"
     inkscape:pageshadow="2"
     inkscape:zoom="0.5"
     inkscape:cx="512"
     inkscape:cy="313.08854"
     inkscape:current-layer="layer1"
     inkscape:document-units="px"
     showgrid="false"
     inkscape:window-width="1321"
     inkscape:window-height="666"
     inkscape:window-x="1"
     inkscape:window-y="59"
     inkscape:window-maximized="0" />
  <metadata
     id="metadata2990">
    <rdf:RDF>
      <cc:Work
         rdf:about="">
        <dc:format>image/svg+xml</dc:format>
        <dc:type
           rdf:resource="http://purl.org/dc/dcmitype/StillImage" />
        <dc:title />
      </cc:Work>
    </rdf:RDF>
  </metadata>
  <g
     id="layer1"
     inkscape:label="Layer 1"
     inkscape:groupmode="layer">
    <rect
       style="fill:#ffffff;fill-opacity:1;stroke:#000000;stroke-width:2.47881985;stroke-miterlimit:4;stroke-opacity:1;stroke-dasharray:none"
       id="rect2993"
       width="530.5575"
       height="212.5475"
       x="221.60313"
       y="165.83929"
       rx="26.753061"
       ry="9.0442095" />
    <rect
       style="fill:#d7f4ee;fill-opacity:1;stroke:#000000;stroke-opacity:1"
       id="rect3072-7"
       width="323.38443"
       height="96"
       x="88.376892"
       y="515.92963"
       rx="16.427465"
       ry="24.415133" />
    <rect
       style="fill:#ccffaa;fill-opacity:1;stroke:none"
       id="rect3072-73"
       width="525.1181"
       height="104"
       x="223.99997"
       y="273.5025"
       rx="26.675247"
       ry="26.449726" />
    <rect
       style="fill:#ffe6d5;fill-opacity:1;stroke:#000000;stroke-width:0.89711517;stroke-opacity:1"
       id="rect3072-2"
       width="254.32149"
       height="90.102882"
       x="608.45355"
       y="518.88574"
       rx="12.919167"
       ry="22.915352" />
    <rect
       style="fill:#ffd5d5;fill-opacity:1;stroke:none"
       id="rect3072"
       width="527"
       height="106"
       x="223"
       y="168"
       rx="26.770845"
       ry="26.958374" />
    <text
       xml:space="preserve"
       style="font-size:40px;font-style:normal;font-weight:normal;line-height:125%;letter-spacing:0px;word-spacing:0px;fill:#000000;fill-opacity:1;stroke:none;font-family:Sans"
       x="170.88191"
       y="110.17337"
       id="text2995"
       sodipodi:linespacing="125%"><tspan
         sodipodi:role="line"
         id="tspan2997"
         x="170.88191"
         y="110.17337"
         style="font-weight:bold;-inkscape-font-specification:Sans Bold">Unhosted web application stack</tspan></text>
    <text
       xml:space="preserve"
       style="font-size:40px;font-style:normal;font-weight:normal;line-height:125%;letter-spacing:0px;word-spacing:0px;fill:#000000;fill-opacity:1;stroke:none;font-family:Sans"
       x="158.62814"
       y="582.92963"
       id="text2999"
       sodipodi:linespacing="125%"><tspan
         sodipodi:role="line"
         id="tspan3001"
         x="158.62814"
         y="582.92963">Protocols</tspan></text>
    <text
       xml:space="preserve"
       style="font-size:40px;font-style:normal;font-weight:normal;line-height:125%;letter-spacing:0px;word-spacing:0px;fill:#000000;fill-opacity:1;stroke:none;font-family:Sans"
       x="686.81909"
       y="579.93719"
       id="text3003"
       sodipodi:linespacing="125%"><tspan
         sodipodi:role="line"
         x="686.81909"
         y="579.93719"
         id="tspan3007">Data</tspan></text>
    <text
       xml:space="preserve"
       style="font-size:40px;font-style:normal;font-weight:normal;line-height:125%;letter-spacing:0px;word-spacing:0px;fill:#000000;fill-opacity:1;stroke:none;font-family:Sans"
       x="389.99997"
       y="336.5025"
       id="text3011"
       sodipodi:linespacing="125%"><tspan
         sodipodi:role="line"
         id="tspan3013"
         x="389.99997"
         y="336.5025">App Logic</tspan><tspan
         sodipodi:role="line"
         x="389.99997"
         y="386.5025"
         id="tspan3015" /></text>
    <text
       xml:space="preserve"
       style="font-size:40px;font-style:normal;font-weight:normal;line-height:125%;letter-spacing:0px;word-spacing:0px;fill:#000000;fill-opacity:1;stroke:none;font-family:Sans"
       x="358"
       y="238"
       id="text3017"
       sodipodi:linespacing="125%"><tspan
         sodipodi:role="line"
         x="358"
         y="238"
         id="tspan3021">User Interface</tspan></text>
    <text
       xml:space="preserve"
       style="font-size:30.36932182px;font-style:normal;font-weight:normal;line-height:125%;letter-spacing:0px;word-spacing:0px;fill:#000000;fill-opacity:1;stroke:none;font-family:Sans"
       x="180.92326"
       y="353.63434"
       id="text3029"
       sodipodi:linespacing="125%"
       transform="scale(1.2720659,0.78612279)"><tspan
         sodipodi:role="line"
         id="tspan3031"
         x="180.92326"
         y="353.63434">..........................................</tspan></text>
    <path
       style="opacity:0;fill:#ffffff;fill-opacity:1;stroke:#000000;stroke-width:2.48000002;stroke-miterlimit:4;stroke-opacity:1;stroke-dasharray:none"
       id="path4055"
       d="m 231.38172,478.89371 c 0.96317,-3.05894 3.15016,-5.52083 4.5871,-8.36963 0.72301,-2.14849 2.18152,-3.75932 3.5266,-5.52721 2.11361,-3.4331 4.28623,-6.81233 6.59213,-10.11927 2.99559,-4.82896 7.10644,-8.79354 10.97339,-12.90764 4.01422,-3.5938 7.78834,-7.40888 11.46155,-11.34547 2.08791,-2.47139 4.57369,-4.51765 7.12842,-6.48554 1.0386,-0.71492 2.0701,-1.44025 3.11579,-2.14475 1.23247,-0.83032 2.54128,-1.55243 3.71838,-2.45954 5.25245,-4.04767 9.59306,-9.13139 14.08243,-13.96263 3.88938,-3.90699 7.19383,-8.32131 10.95564,-12.33758 5.09202,-4.59751 12.26216,-7.64251 17.79728,-10.85859 3.11525,-1.81006 -6.2005,3.67886 -9.39839,5.33858 -1.17356,0.60908 2.23419,-1.41679 3.31352,-2.18051 1.24625,-0.88182 2.43987,-1.83579 3.6598,-2.75368 5.68662,-4.77263 11.58379,-9.31869 17.93599,-13.17228 6.11038,-4.20817 12.38384,-8.17963 18.48422,-12.39754 7.26371,-5.43596 14.69373,-10.62545 22.9966,-14.44676 1.2009,-0.61889 1.91465,0.80568 2.26587,1.77174 0,0 -13.09839,7.11428 -13.09839,7.11428 l 0,0 c -0.0358,-0.61798 -0.0862,0.27455 -0.664,0.3076 -4.37776,2.37892 -4.26869,2.32951 10.5461,-6.1786 0.52103,-0.29923 -1.01559,0.64238 -1.51876,0.97073 -2.63502,1.71954 -5.23213,3.49995 -7.7318,5.41257 -7.02877,5.10057 0.38292,-0.12952 -6.82041,4.51232 -3.84478,2.47758 -7.44031,5.33635 -11.25684,7.85697 -6.59765,3.72536 -12.71152,8.2714 -18.46972,13.18618 -2.07566,1.66471 -4.24983,3.5352 -6.54463,4.92443 -4.88679,2.95839 -9.86326,5.76608 -14.78474,8.66639 -3.32309,1.95835 6.66364,-3.88694 9.98955,-5.8405 1.14865,-0.67469 -4.23818,2.33604 -3.34969,2.17962 -1.68178,1.81998 -0.77863,0.91153 -2.72372,2.71108 -3.09883,3.25322 -5.71998,6.97112 -9.08052,9.99089 -1.11352,1.16619 -2.25447,2.3068 -3.34057,3.49858 -1.14212,1.25326 -2.16651,2.61297 -3.34236,3.83464 -1.15949,1.20466 -2.44864,2.27762 -3.65498,3.43535 -1.17871,1.13123 -2.23855,2.39274 -3.4998,3.43115 -1.99657,1.64384 -4.44605,2.67646 -6.41265,4.36742 -0.71389,0.49749 -1.47109,0.93799 -2.14167,1.49247 -0.78747,0.65113 -1.33139,1.56873 -2.13559,2.19907 -0.27518,0.21569 -0.64703,0.29089 -0.91058,0.52065 -0.66293,0.57792 -0.93037,1.54027 -1.78052,1.94706 -3.893,3.90694 -7.61483,7.98327 -11.88743,11.49604 -3.71624,4.02303 -7.80718,7.80715 -10.64295,12.54003 -2.26733,3.32704 -4.70188,6.52908 -6.60189,10.09566 -0.29741,0.52383 -0.57022,1.06242 -0.89224,1.57149 -0.81434,1.28733 -2.19365,2.17508 -2.59184,3.74103 -1.32166,2.68046 -2.92709,5.17742 -4.61712,7.62934 0,0 -13.23656,6.74436 -13.23656,6.74436 z"
       inkscape:connector-curvature="0" />
    <path
       style="fill:none;stroke:#000000;stroke-width:1px;stroke-linecap:butt;stroke-linejoin:miter;stroke-opacity:1"
       d="M 434.98152,377.5025 297.67911,515.92963"
       id="path4057"
       inkscape:connector-type="polyline"
       inkscape:connector-curvature="0"
       inkscape:connection-start="#rect3072-73"
       inkscape:connection-start-point="d4"
       inkscape:connection-end="#rect3072-7"
       inkscape:connection-end-point="d4" />
    <path
       style="fill:none;stroke:#000000;stroke-width:1px;stroke-linecap:butt;stroke-linejoin:miter;stroke-opacity:1"
       d="M 688.55613,518.88574 540.87526,377.5025"
       id="path4061"
       inkscape:connector-type="polyline"
       inkscape:connector-curvature="0"
       inkscape:connection-start="#rect3072-2"
       inkscape:connection-start-point="d4"
       inkscape:connection-end="#rect3072-73"
       inkscape:connection-end-point="d4" />
  </g>
</svg>
