<?xml version="1.0" encoding="UTF-8" standalone="no"?>
<!-- Created with Inkscape (http://www.inkscape.org/) -->

<svg
   xmlns:dc="http://purl.org/dc/elements/1.1/"
   xmlns:cc="http://creativecommons.org/ns#"
   xmlns:rdf="http://www.w3.org/1999/02/22-rdf-syntax-ns#"
   xmlns:svg="http://www.w3.org/2000/svg"
   xmlns="http://www.w3.org/2000/svg"
   xmlns:xlink="http://www.w3.org/1999/xlink"
   xmlns:sodipodi="http://sodipodi.sourceforge.net/DTD/sodipodi-0.dtd"
   xmlns:inkscape="http://www.inkscape.org/namespaces/inkscape"
   width="1024px"
   height="768px"
   id="svg2985"
   version="1.1"
   inkscape:version="0.48.4 r9939"
   sodipodi:docname="unhosted_app_stack_sockethub.png"
   inkscape:export-filename="/home/nkj/code/website-silverbucket.net/img/full_stack.png"
   inkscape:export-xdpi="90"
   inkscape:export-ydpi="90">
  <defs
     id="defs2987">
    <radialGradient
       inkscape:collect="always"
       xlink:href="#linearGradient4084"
       id="radialGradient4092"
       cx="204"
       cy="528"
       fx="204"
       fy="528"
       r="40"
       gradientTransform="matrix(1,0,0,1.8,-93.85491,-472.4)"
       gradientUnits="userSpaceOnUse" />
    <linearGradient
       id="linearGradient4084">
      <stop
         style="stop-color:#ff9c1f;stop-opacity:1;"
         offset="0"
         id="stop4086" />
      <stop
         id="stop4094"
         offset="0.23809524"
         style="stop-color:#f23c00;stop-opacity:1;" />
      <stop
         style="stop-color:#de0f3c;stop-opacity:0.82467532;"
         offset="1"
         id="stop4088" />
    </linearGradient>
  </defs>
  <sodipodi:namedview
     id="base"
     pagecolor="#ffffff"
     bordercolor="#666666"
     borderopacity="1.0"
     inkscape:pageopacity="0.0"
     inkscape:pageshadow="2"
     inkscape:zoom="0.5"
     inkscape:cx="75.786405"
     inkscape:cy="313.08854"
     inkscape:current-layer="layer1"
     inkscape:document-units="px"
     showgrid="false"
     inkscape:window-width="1321"
     inkscape:window-height="666"
     inkscape:window-x="1"
     inkscape:window-y="59"
     inkscape:window-maximized="0" />
  <metadata
     id="metadata2990">
    <rdf:RDF>
      <cc:Work
         rdf:about="">
        <dc:format>image/svg+xml</dc:format>
        <dc:type
           rdf:resource="http://purl.org/dc/dcmitype/StillImage" />
        <dc:title></dc:title>
      </cc:Work>
    </rdf:RDF>
  </metadata>
  <g
     id="layer1"
     inkscape:label="Layer 1"
     inkscape:groupmode="layer">
    <rect
       style="fill:#ffffff;fill-opacity:1;stroke:#000000;stroke-width:2.47881985;stroke-miterlimit:4;stroke-opacity:1;stroke-dasharray:none"
       id="rect2993"
       width="530.5575"
       height="212.5475"
       x="221.60313"
       y="165.83929"
       rx="26.753061"
       ry="9.0442095" />
    <rect
       style="fill:#ccffaa;fill-opacity:1;stroke:none"
       id="rect3072-73"
       width="525.1181"
       height="104"
       x="223.99997"
       y="273.5025"
       rx="26.675247"
       ry="26.449726" />
    <rect
       style="fill:#ffe6d5;fill-opacity:1;stroke:#000000;stroke-width:0.89711517;stroke-opacity:1"
       id="rect3072-2"
       width="254.32149"
       height="90.102882"
       x="608.45355"
       y="518.88574"
       rx="12.919167"
       ry="22.915352" />
    <rect
       style="fill:#ffd5d5;fill-opacity:1;stroke:none"
       id="rect3072"
       width="527"
       height="106"
       x="223"
       y="168"
       rx="26.770845"
       ry="26.958374" />
    <text
       xml:space="preserve"
       style="font-size:40px;font-style:normal;font-weight:normal;line-height:125%;letter-spacing:0px;word-spacing:0px;fill:#000000;fill-opacity:1;stroke:none;font-family:Sans"
       x="686.81909"
       y="579.93719"
       id="text3003"
       sodipodi:linespacing="125%"><tspan
         sodipodi:role="line"
         x="686.81909"
         y="579.93719"
         id="tspan3007">Data</tspan></text>
    <text
       xml:space="preserve"
       style="font-size:40px;font-style:normal;font-weight:normal;line-height:125%;letter-spacing:0px;word-spacing:0px;fill:#000000;fill-opacity:1;stroke:none;font-family:Sans"
       x="389.99997"
       y="336.5025"
       id="text3011"
       sodipodi:linespacing="125%"><tspan
         sodipodi:role="line"
         id="tspan3013"
         x="389.99997"
         y="336.5025">App Logic</tspan><tspan
         sodipodi:role="line"
         x="389.99997"
         y="386.5025"
         id="tspan3015" /></text>
    <text
       xml:space="preserve"
       style="font-size:40px;font-style:normal;font-weight:normal;line-height:125%;letter-spacing:0px;word-spacing:0px;fill:#000000;fill-opacity:1;stroke:none;font-family:Sans"
       x="358"
       y="238"
       id="text3017"
       sodipodi:linespacing="125%"><tspan
         sodipodi:role="line"
         x="358"
         y="238"
         id="tspan3021">User Interface</tspan></text>
    <rect
       style="opacity:0.52192982;fill:#aaaaaa;fill-opacity:1;stroke:#000000;stroke-width:2.48000001999999986;stroke-miterlimit:4;stroke-opacity:1;stroke-dasharray:none"
       id="rect3244"
       width="1026"
       height="774"
       x="0"
       y="-2"
       rx="26.770845"
       ry="26.958374" />
    <text
       xml:space="preserve"
       style="font-size:30.36932182px;font-style:normal;font-weight:normal;line-height:125%;letter-spacing:0px;word-spacing:0px;fill:#000000;fill-opacity:1;stroke:none;font-family:Sans"
       x="180.92326"
       y="353.63434"
       id="text3029"
       sodipodi:linespacing="125%"
       transform="scale(1.2720659,0.78612279)"><tspan
         sodipodi:role="line"
         id="tspan3031"
         x="180.92326"
         y="353.63434">..........................................</tspan></text>
    <path
       sodipodi:type="arc"
       style="opacity:1;fill:#ffffff;fill-opacity:1;stroke:#000000;stroke-width:2.48000001999999986;stroke-miterlimit:4;stroke-opacity:1;stroke-dasharray:none"
       id="path4014"
       sodipodi:cx="248"
       sodipodi:cy="568"
       sodipodi:rx="190"
       sodipodi:ry="134"
       d="m 438,568 a 190,134 0 1 1 -380,0 190,134 0 1 1 380,0 z" />
    <rect
       style="fill:#d7f4ee;fill-opacity:1;stroke:#000000;stroke-opacity:1"
       id="rect3072-7"
       width="323.38443"
       height="96"
       x="88.376892"
       y="515.92963"
       rx="16.427465"
       ry="24.415133" />
    <text
       xml:space="preserve"
       style="font-size:40px;font-style:normal;font-weight:normal;line-height:125%;letter-spacing:0px;word-spacing:0px;fill:#000000;fill-opacity:1;stroke:none;font-family:Sans"
       x="170.88191"
       y="110.17337"
       id="text2995"
       sodipodi:linespacing="125%"><tspan
         sodipodi:role="line"
         id="tspan2997"
         x="170.88191"
         y="110.17337"
         style="font-weight:bold;-inkscape-font-specification:Sans Bold">Unhosted web application stack</tspan></text>
    <text
       xml:space="preserve"
       style="font-size:40px;font-style:normal;font-weight:normal;line-height:125%;letter-spacing:0px;word-spacing:0px;fill:#000000;fill-opacity:1;stroke:none;font-family:Sans"
       x="158.62814"
       y="582.92963"
       id="text2999"
       sodipodi:linespacing="125%"><tspan
         sodipodi:role="line"
         id="tspan3001"
         x="158.62814"
         y="582.92963">Protocols</tspan></text>
    <path
       style="opacity:0;fill:#ffffff;fill-opacity:1;stroke:#000000;stroke-width:2.48000002;stroke-miterlimit:4;stroke-opacity:1;stroke-dasharray:none"
       id="path4055"
       d="m 231.38172,478.89371 c 0.96317,-3.05894 3.15016,-5.52083 4.5871,-8.36963 0.72301,-2.14849 2.18152,-3.75932 3.5266,-5.52721 2.11361,-3.4331 4.28623,-6.81233 6.59213,-10.11927 2.99559,-4.82896 7.10644,-8.79354 10.97339,-12.90764 4.01422,-3.5938 7.78834,-7.40888 11.46155,-11.34547 2.08791,-2.47139 4.57369,-4.51765 7.12842,-6.48554 1.0386,-0.71492 2.0701,-1.44025 3.11579,-2.14475 1.23247,-0.83032 2.54128,-1.55243 3.71838,-2.45954 5.25245,-4.04767 9.59306,-9.13139 14.08243,-13.96263 3.88938,-3.90699 7.19383,-8.32131 10.95564,-12.33758 5.09202,-4.59751 12.26216,-7.64251 17.79728,-10.85859 3.11525,-1.81006 -6.2005,3.67886 -9.39839,5.33858 -1.17356,0.60908 2.23419,-1.41679 3.31352,-2.18051 1.24625,-0.88182 2.43987,-1.83579 3.6598,-2.75368 5.68662,-4.77263 11.58379,-9.31869 17.93599,-13.17228 6.11038,-4.20817 12.38384,-8.17963 18.48422,-12.39754 7.26371,-5.43596 14.69373,-10.62545 22.9966,-14.44676 1.2009,-0.61889 1.91465,0.80568 2.26587,1.77174 0,0 -13.09839,7.11428 -13.09839,7.11428 l 0,0 c -0.0358,-0.61798 -0.0862,0.27455 -0.664,0.3076 -4.37776,2.37892 -4.26869,2.32951 10.5461,-6.1786 0.52103,-0.29923 -1.01559,0.64238 -1.51876,0.97073 -2.63502,1.71954 -5.23213,3.49995 -7.7318,5.41257 -7.02877,5.10057 0.38292,-0.12952 -6.82041,4.51232 -3.84478,2.47758 -7.44031,5.33635 -11.25684,7.85697 -6.59765,3.72536 -12.71152,8.2714 -18.46972,13.18618 -2.07566,1.66471 -4.24983,3.5352 -6.54463,4.92443 -4.88679,2.95839 -9.86326,5.76608 -14.78474,8.66639 -3.32309,1.95835 6.66364,-3.88694 9.98955,-5.8405 1.14865,-0.67469 -4.23818,2.33604 -3.34969,2.17962 -1.68178,1.81998 -0.77863,0.91153 -2.72372,2.71108 -3.09883,3.25322 -5.71998,6.97112 -9.08052,9.99089 -1.11352,1.16619 -2.25447,2.3068 -3.34057,3.49858 -1.14212,1.25326 -2.16651,2.61297 -3.34236,3.83464 -1.15949,1.20466 -2.44864,2.27762 -3.65498,3.43535 -1.17871,1.13123 -2.23855,2.39274 -3.4998,3.43115 -1.99657,1.64384 -4.44605,2.67646 -6.41265,4.36742 -0.71389,0.49749 -1.47109,0.93799 -2.14167,1.49247 -0.78747,0.65113 -1.33139,1.56873 -2.13559,2.19907 -0.27518,0.21569 -0.64703,0.29089 -0.91058,0.52065 -0.66293,0.57792 -0.93037,1.54027 -1.78052,1.94706 -3.893,3.90694 -7.61483,7.98327 -11.88743,11.49604 -3.71624,4.02303 -7.80718,7.80715 -10.64295,12.54003 -2.26733,3.32704 -4.70188,6.52908 -6.60189,10.09566 -0.29741,0.52383 -0.57022,1.06242 -0.89224,1.57149 -0.81434,1.28733 -2.19365,2.17508 -2.59184,3.74103 -1.32166,2.68046 -2.92709,5.17742 -4.61712,7.62934 0,0 -13.23656,6.74436 -13.23656,6.74436 z"
       inkscape:connector-curvature="0" />
    <path
       style="fill:none;stroke:#000000;stroke-width:1px;stroke-linecap:butt;stroke-linejoin:miter;stroke-opacity:1"
       d="M 434.98152,377.5025 297.67911,515.92963"
       id="path4057"
       inkscape:connector-type="polyline"
       inkscape:connector-curvature="0"
       inkscape:connection-start="#rect3072-73"
       inkscape:connection-start-point="d4"
       inkscape:connection-end="#rect3072-7"
       inkscape:connection-end-point="d4" />
    <path
       style="fill:none;stroke:#000000;stroke-width:1px;stroke-linecap:butt;stroke-linejoin:miter;stroke-opacity:1"
       d="M 688.55613,518.88574 540.87526,377.5025"
       id="path4061"
       inkscape:connector-type="polyline"
       inkscape:connector-curvature="0"
       inkscape:connection-start="#rect3072-2"
       inkscape:connection-start-point="d4"
       inkscape:connection-end="#rect3072-73"
       inkscape:connection-end-point="d4" />
    <path
       inkscape:connector-curvature="0"
       id="path4044"
       style="font-size:100px;font-style:normal;font-variant:normal;font-weight:bold;font-stretch:normal;line-height:125%;letter-spacing:0px;word-spacing:0px;fill:#000000;fill-opacity:1;stroke:none;font-family:Source Sans Pro;-inkscape-font-specification:Source Sans Pro Bold"
       d="m 40.55938,489.38571 c 2.26665,1.73334 4.43332,3.03334 6.499995,3.9 2.06665,0.86667 4.16664,1.30001 6.3,1.3 2.19997,10e-6 3.79997,-0.36666 4.8,-1.1 0.99997,-0.73332 1.49997,-1.76666 1.5,-3.1 -3e-5,-0.79999 -0.30003,-1.49999 -0.9,-2.1 -0.53336,-0.66665 -1.30003,-1.26665 -2.3,-1.8 -0.93336,-0.53332 -2.00003,-0.99998 -3.2,-1.4 -1.20002,-0.46665 -2.43336,-0.96665 -3.7,-1.5 -1.53335,-0.59998 -3.06668,-1.29998 -4.599995,-2.1 -1.53335,-0.79998 -2.93335,-1.76664 -4.2,-2.9 -1.26668,-1.19997 -2.30001,-2.56664 -3.1,-4.1 -0.80001,-1.59997 -1.20001,-3.4333 -1.2,-5.5 -1e-5,-2.26663 0.43333,-4.36663 1.3,-6.3 0.93332,-1.93329 2.23332,-3.56662 3.9,-4.9 1.66665,-1.33329 3.66665,-2.36662 5.999995,-3.1 2.33331,-0.79995 4.93331,-1.19995 7.8,-1.2 3.79997,5e-5 7.1333,0.66671 10,2 2.86663,1.26671 5.36662,2.70004 7.5,4.3 l -6.6,8.8 c -1.80004,-1.3333 -3.5667,-2.36663 -5.3,-3.1 -1.73336,-0.7333 -3.4667,-1.09996 -5.2,-1.1 -3.73336,4e-5 -5.60002,1.30004 -5.6,3.9 -2e-5,0.80003 0.26664,1.50003 0.8,2.1 0.53331,0.53336 1.23331,1.03336 2.1,1.5 0.93331,0.4667 1.96664,0.93336 3.1,1.4 1.19997,0.40003 2.4333,0.83336 3.7,1.3 1.59997,0.60003 3.16663,1.30003 4.7,2.1 1.59996,0.73336 3.03329,1.66669 4.3,2.8 1.33329,1.13336 2.39996,2.53335 3.2,4.2 0.79996,1.60002 1.19996,3.53335 1.2,5.8 -4e-5,2.26668 -0.43338,4.36668 -1.3,6.3 -0.86671,1.93331 -2.16671,3.63331 -3.9,5.10001 -1.73337,1.4 -3.8667,2.5333 -6.4,3.4 -2.53336,0.8 -5.46669,1.2 -8.8,1.2 -3.26669,0 -6.63335,-0.6333 -10.099995,-1.9 -3.40001,-1.2667 -6.36667,-2.9333 -8.9,-5 l 6.6,-9.20001" />
    <path
       inkscape:connector-curvature="0"
       id="path4048"
       style="font-size:100px;font-style:normal;font-variant:normal;font-weight:bold;font-stretch:normal;line-height:125%;letter-spacing:0px;word-spacing:0px;fill:#000000;fill-opacity:1;stroke:none;font-family:Source Sans Pro;-inkscape-font-specification:Source Sans Pro Bold"
       d="m 135.26406,479.48571 c 0,-4.13331 0.69999,-7.79997 2.09999,-11 1.40001,-3.26663 3.26666,-5.99996 5.6,-8.2 2.39999,-2.19996 5.16665,-3.86662 8.30001,-5 3.1333,-1.19995 6.39997,-1.79995 9.79999,-1.8 3.06664,5e-5 5.8333,0.53338 8.3,1.6 2.46663,1.00005 4.5333,2.36671 6.2,4.1 l -6.7,9.1 c -2.33336,-1.9333 -4.63336,-2.89996 -6.9,-2.9 -3.60002,4e-5 -6.43335,1.2667 -8.5,3.8 -2.06668,2.53336 -3.10001,5.96669 -3.1,10.3 -1e-5,4.33335 1.03332,7.76668 3.1,10.3 2.13331,2.53334 4.79998,3.80001 8,3.8 1.79997,10e-6 3.4333,-0.36666 4.9,-1.1 1.46663,-0.73332 2.79997,-1.56666 4,-2.5 l 5.9,9.30001 c -2.40004,2.1333 -5.0667,3.7 -8,4.7 -2.93336,1 -5.76669,1.5 -8.5,1.5 -3.46668,0 -6.70002,-0.5667 -9.7,-1.7 -2.93334,-1.2 -5.50001,-2.9 -7.7,-5.1 -2.2,-2.2 -3.93334,-4.9 -5.2,-8.10001 -1.26667,-3.26665 -1.9,-6.96665 -1.9,-11.1" />
    <path
       inkscape:connector-curvature="0"
       id="path4050"
       style="font-size:100px;font-style:normal;font-variant:normal;font-weight:bold;font-stretch:normal;line-height:125%;letter-spacing:0px;word-spacing:0px;fill:#000000;fill-opacity:1;stroke:none;font-family:Source Sans Pro;-inkscape-font-specification:Source Sans Pro Bold"
       d="m 184.84375,434.18571 14.29999,0 0,40.2 0.4,0 15.7,-19.7 16,0 -17.4,20.4 18.7,29.20001 -15.9,0 -11.2,-19.30001 -6.3,7.1 0,12.20001 -14.3,0 0,-70.10001" />
    <path
       inkscape:connector-curvature="0"
       id="path4052"
       style="font-size:100px;font-style:normal;font-variant:normal;font-weight:bold;font-stretch:normal;line-height:125%;letter-spacing:0px;word-spacing:0px;fill:#000000;fill-opacity:1;stroke:none;font-family:Source Sans Pro;-inkscape-font-specification:Source Sans Pro Bold"
       d="m 234.09218,479.48571 c 0,-3.99997 0.66666,-7.59997 2,-10.8 1.33334,-3.26663 3.06666,-5.99996 5.20001,-8.2 2.19998,-2.26662 4.69997,-3.99995 7.5,-5.2 2.79998,-1.19995 5.69998,-1.79995 8.7,-1.8 3.5333,5e-5 6.59997,0.60005 9.19999,1.8 2.66663,1.20005 4.86663,2.86671 6.6,5 1.79995,2.13337 3.13329,4.6667 4,7.6 0.86662,2.8667 1.29995,6.00003 1.3,9.4 -4e-5,1.33336 -0.0667,2.56669 -0.2,3.7 -0.13337,1.06669 -0.2667,1.90002 -0.4,2.5 l -29.69999,0 c 0.66665,3.80002 2.13331,6.56668 4.4,8.3 2.33331,1.66668 5.16664,2.50001 8.5,2.5 3.5333,1e-5 7.09996,-1.09999 10.7,-3.3 l 4.9,8.90001 c -2.53338,1.7333 -5.36671,3.1 -8.5,4.1 -3.0667,1 -6.10003,1.5 -9.1,1.5 -3.53336,0 -6.83336,-0.5667 -9.9,-1.7 -3.06668,-1.2 -5.73335,-2.9 -8,-5.1 -2.26668,-2.26667 -4.03334,-5 -5.3,-8.20001 -1.26667,-3.19998 -1.9,-6.86665 -1.9,-11 m 32,-5.1 c -5e-5,-2.86664 -0.63338,-5.19997 -1.90001,-7 -1.26669,-1.79996 -3.40002,-2.69996 -6.4,-2.7 -2.33336,4e-5 -4.40002,0.80004 -6.19999,2.4 -1.73335,1.53337 -2.8667,3.9667 -3.40001,7.3 l 17.90001,0" />
    <path
       inkscape:connector-curvature="0"
       id="path4054"
       style="font-size:100px;font-style:normal;font-variant:normal;font-weight:bold;font-stretch:normal;line-height:125%;letter-spacing:0px;word-spacing:0px;fill:#000000;fill-opacity:1;stroke:none;font-family:Source Sans Pro;-inkscape-font-specification:Source Sans Pro Bold"
       d="m 288.99219,466.18571 -6.8,0 0,-10.9 7.6,-0.6 1.69999,-13.2 12.2,0 0,13.2 11.9,0 0,11.5 -11.9,0 0,19.9 c -2e-5,2.80001 0.56664,4.83334 1.7,6.1 1.19997,1.20001 2.76664,1.80001 4.7,1.8 0.79997,1e-5 1.59997,-0.1 2.4,-0.3 0.86663,-0.19999 1.6333,-0.43332 2.3,-0.7 l 2.3,10.70001 c -1.33337,0.4 -2.90003,0.8 -4.7,1.2 -1.80003,0.4 -3.90003,0.6 -6.3,0.6 -3.06669,0 -5.70002,-0.4667 -7.9,-1.4 -2.13335,-0.9333 -3.90001,-2.2333 -5.3,-3.9 -1.33335,-1.6667 -2.33334,-3.66667 -3,-6.00001 -0.60001,-2.39999 -0.90001,-5.03332 -0.9,-7.9 l 0,-20.1" />
    <path
       inkscape:connector-curvature="0"
       id="path4056"
       style="font-size:100px;font-style:normal;font-variant:normal;font-weight:bold;font-stretch:normal;line-height:125%;letter-spacing:0px;word-spacing:0px;fill:#000000;fill-opacity:1;stroke:none;font-family:Source Sans Pro;-inkscape-font-specification:Source Sans Pro Bold"
       d="m 325.27343,434.18571 14.7,0 0,17.2 -0.7,8.9 c 1.86665,-1.66662 4.03331,-3.19995 6.5,-4.6 2.46664,-1.46662 5.39997,-2.19995 8.80001,-2.2 5.39996,5e-5 9.29995,1.76671 11.69999,5.3 2.46662,3.53337 3.69995,8.43337 3.7,14.7 l 0,30.80001 -14.7,0 0,-28.90001 c -4e-5,-3.59997 -0.50004,-6.06663 -1.5,-7.4 -0.93337,-1.3333 -2.4667,-1.99996 -4.6,-2 -1.8667,4e-5 -3.46669,0.43337 -4.8,1.3 -1.33336,0.80003 -2.80002,1.9667 -4.4,3.5 l 0,33.50001 -14.7,0 0,-70.10001" />
    <path
       inkscape:connector-curvature="0"
       id="path4058"
       style="font-size:100px;font-style:normal;font-variant:normal;font-weight:bold;font-stretch:normal;line-height:125%;letter-spacing:0px;word-spacing:0px;fill:#000000;fill-opacity:1;stroke:none;font-family:Source Sans Pro;-inkscape-font-specification:Source Sans Pro Bold"
       d="m 381.80468,454.68571 14.7,0 0,28.9 c -2e-5,3.60002 0.49998,6.06668 1.5,7.4 0.99998,1.33334 2.56664,2.00001 4.7,2 1.86664,1e-5 3.4333,-0.43332 4.7,-1.3 1.26663,-0.86666 2.6333,-2.26665 4.1,-4.2 l 0,-32.8 14.7,0 0,49.60001 -12,0 -1.1,-6.90001 -0.3,0 c -2.13337,2.53331 -4.43337,4.53331 -6.9,6.00001 -2.40003,1.4 -5.30003,2.1 -8.7,2.1 -5.40002,0 -9.33335,-1.7667 -11.8,-5.3 -2.40001,-3.53334 -3.60001,-8.43333 -3.6,-14.70001 l 0,-30.8" />
    <path
       inkscape:connector-curvature="0"
       id="path4060"
       style="font-size:100px;font-style:normal;font-variant:normal;font-weight:bold;font-stretch:normal;line-height:125%;letter-spacing:0px;word-spacing:0px;fill:#000000;fill-opacity:1;stroke:none;font-family:Source Sans Pro;-inkscape-font-specification:Source Sans Pro Bold"
       d="m 439.14062,434.18571 14.7,0 0,17.2 -0.4,7.6 c 1.93332,-1.73329 3.99998,-3.06662 6.2,-4 2.26664,-0.99995 4.56663,-1.49995 6.9,-1.5 2.99996,5e-5 5.69996,0.60005 8.1,1.8 2.39995,1.20005 4.43329,2.90004 6.10001,5.1 1.73327,2.13337 3.03328,4.7667 3.89999,7.9 0.93329,3.0667 1.39995,6.50003 1.4,10.3 -6e-5,4.26669 -0.60006,8.06668 -1.8,11.4 -1.13339,3.33334 -2.70005,6.16667 -4.7,8.50001 -1.93338,2.2667 -4.16671,4 -6.7,5.2 -2.46671,1.2 -5.03337,1.8 -7.7,1.8 -2.20003,0 -4.43336,-0.5333 -6.7,-1.6 -2.20003,-1.0667 -4.26668,-2.6667 -6.19999,-4.8 l -0.4,0 -1.2,5.2 -11.5,0 0,-70.10001 m 14.7,56.1 c 1.33331,1.20001 2.66664,2.03334 4,2.5 1.3333,0.46668 2.6333,0.70001 3.9,0.7 2.5333,1e-5 4.69995,-1.13332 6.5,-3.4 1.79996,-2.33332 2.69995,-6.06665 2.69999,-11.2 -4e-5,-8.9333 -2.86671,-13.39996 -8.6,-13.4 -2.93336,4e-5 -5.76669,1.50004 -8.5,4.5 l 0,20.3" />
    <path
       style="font-size:100px;font-style:normal;font-variant:normal;font-weight:bold;font-stretch:normal;line-height:125%;letter-spacing:0px;word-spacing:0px;fill:url(#radialGradient4092);fill-opacity:1;stroke:none;font-family:Source Sans Pro;-inkscape-font-specification:Source Sans Pro Bold"
       d="m 130.14508,406 c -6.62742,0 -12,5.37258 -12,12 0,2.13506 0.55376,4.13808 1.53125,5.875 1.07764,11.77173 -2.76597,28.04704 -11.78125,29.9375 -1.27891,-0.21515 -2.57952,-0.31248 -3.90625,-0.3125 -1.4086,2e-5 -2.78806,0.13248 -4.156245,0.375 -0.0103,-10e-4 -0.021,10e-4 -0.0313,0 -11.01524,-1.24194 -13.6562,-11.19187 -13.6562,-15.875 0,-4.41828 -3.58172,-8 -8,-8 -4.41828,0 -8,3.58172 -8,8 0,4.41828 3.58172,8 8,8 4.63448,0 8.66649,8.94387 6.59375,17.09375 -1.14395,1.60243 -2.11964,3.40251 -2.9375,5.40625 -1.33333,3.20003 -2,6.86669 -2,11 0,4.13335 0.66667,7.8271 2,11.09375 1.33333,3.20001 3.08125,5.89375 5.28125,8.09375 0.24141,0.23432 0.50102,0.46453 0.75,0.6875 3.0049,7.9428 -3.13988,25.11245 -7.21875,30.9375 -0.004,0 -0.0275,-0.01 -0.0313,0 -1.43556,0.6072 -2.43745,2.0306 -2.43745,3.6875 0,2.2091 1.79086,4 4,4 2.20914,0 4,-1.7909 4,-4 0,-0.7396 -0.21255,-1.43685 -0.5625,-2.03125 -0.94125,-8.22396 11.05178,-23.43288 18.718745,-26.46875 1.73181,-0.0207 3.4126,-0.25618 5.0625,-0.625 11.23356,1.73698 25.33032,24.1285 24.90625,35.65625 -0.0873,0.4736 -0.125,0.96995 -0.125,1.46875 0,4.4183 3.58172,8 8,8 4.41828,0 8,-3.5817 8,-8 0,-3.5899 -2.36845,-6.6121 -5.625,-7.625 l -0.0313,0 c -10.66752,-7.59479 -23.42099,-28.95421 -20.5625,-39.65625 0.82279,-1.27278 1.53564,-2.63558 2.15625,-4.125 1.33329,-3.26665 1.99995,-6.9604 2,-11.09375 -5e-5,-4.13331 -0.66671,-7.79997 -2,-11 -0.46668,-1.14332 -0.9815,-2.23734 -1.5625,-3.25 -4.04734,-14.28595 0.2072,-26.35193 8.875,-35.71875 5.04063,-1.42206 8.75,-6.03564 8.75,-11.53125 0,-6.62742 -5.37258,-12 -12,-12 z m -26.15625,59.375 c 2.99998,4e-5 5.27915,1.2792 6.8125,3.8125 1.5333,2.53336 2.28123,5.97919 2.28125,10.3125 -2e-5,4.33335 -0.74795,7.74793 -2.28125,10.28125 -1.53335,2.53334 -3.81252,3.81251 -6.8125,3.8125 -3.06668,10e-6 -5.372925,-1.27916 -6.906245,-3.8125 -1.46668,-2.53332 -2.18751,-5.9479 -2.1875,-10.28125 -10e-6,-4.33331 0.72082,-7.77914 2.1875,-10.3125 1.53332,-2.5333 3.839565,-3.81246 6.906245,-3.8125 z"
       id="path4046"
       inkscape:connector-curvature="0" />
  </g>
</svg>
